<svg width="52" height="52" viewBox="0 0 52 52" fill="none" xmlns="http://www.w3.org/2000/svg">
<rect width="52" height="52" rx="26" fill="#121212"/>
<path d="M3.90095 33.3937L2.40095 33.3937L3.90095 33.3937ZM3.90039 13.894L5.40039 13.894L3.90039 13.894ZM26.0002 40.0938C26.8286 40.0939 27.5002 39.4223 27.5002 38.5939C27.5003 37.7654 26.8287 37.0939 26.0003 37.0938L26.0002 38.5938L26.0002 40.0938ZM9.10086 38.5935L9.10088 37.0935H9.10088L9.10086 38.5935ZM45.4993 13.8937L43.9993 13.8937V13.8937L45.4993 13.8937ZM5.19939 16.2935C4.37096 16.2935 3.69939 16.9651 3.69939 17.7935C3.69939 18.622 4.37096 19.2935 5.19939 19.2935V17.7935V16.2935ZM44.1994 19.2935C45.0278 19.2935 45.6994 18.622 45.6994 17.7935C45.6994 16.9651 45.0278 16.2935 44.1994 16.2935V17.7935V19.2935ZM35.0994 29.2229L34.4286 27.8812C33.9204 28.1353 33.5994 28.6547 33.5994 29.2229H35.0994ZM41.5994 43.3062L40.7984 44.5745C41.2877 44.8834 41.9111 44.8834 42.4003 44.5745L41.5994 43.3062ZM48.0994 29.2229H49.5994C49.5994 28.6547 49.2784 28.1353 48.7702 27.8812L48.0994 29.2229ZM38.1111 27.717L38.7819 29.0586V29.0586L38.1111 27.717ZM45.0877 27.717L44.4168 29.0586V29.0586L45.0877 27.717ZM9.10039 8.69385V10.1938H40.2981V8.69385V7.19385H9.10039V8.69385ZM3.90095 33.3937L5.40095 33.3936L5.40039 13.894L3.90039 13.894L2.40039 13.894L2.40095 33.3937L3.90095 33.3937ZM26.0002 38.5938L26.0003 37.0938L9.10088 37.0935L9.10086 38.5935L9.10083 40.0935L26.0002 40.0938L26.0002 38.5938ZM45.4993 13.8937L43.9993 13.8937L43.9994 17.7939L45.4994 17.7938L46.9994 17.7938L46.9993 13.8937L45.4993 13.8937ZM9.10039 8.69385V7.19385C5.40001 7.19385 2.40029 10.1937 2.40039 13.894L3.90039 13.894L5.40039 13.894C5.40033 11.8505 7.0569 10.1938 9.10039 10.1938V8.69385ZM40.2981 8.69385V10.1938C42.3426 10.1938 43.9993 11.8502 43.9993 13.8937L45.4993 13.8937L46.9993 13.8937C46.9993 10.1924 43.9984 7.19385 40.2981 7.19385V8.69385ZM3.90095 33.3937L2.40095 33.3937C2.40105 37.0939 5.40064 40.0935 9.10083 40.0935L9.10086 38.5935L9.10088 37.0935C7.0575 37.0935 5.40101 35.437 5.40095 33.3936L3.90095 33.3937ZM5.19939 17.7935V19.2935H44.1994V17.7935V16.2935H5.19939V17.7935ZM38.1111 27.717L37.4403 26.3754L34.4286 27.8812L35.0994 29.2229L35.7702 30.5645L38.7819 29.0586L38.1111 27.717ZM35.0994 29.2229H33.5994V36.4704H35.0994H36.5994V29.2229H35.0994ZM35.0994 36.4704H33.5994C33.5994 38.041 34.5114 39.4509 35.7038 40.6776C36.9268 41.9358 38.6671 43.2284 40.7984 44.5745L41.5994 43.3062L42.4003 42.0379C40.345 40.7399 38.8352 39.595 37.855 38.5866C36.844 37.5465 36.5994 36.8606 36.5994 36.4704H35.0994ZM41.5994 43.3062L42.4003 44.5745C44.4729 43.2656 46.2314 42.104 47.4623 40.9133C48.7342 39.683 49.5994 38.2711 49.5994 36.4704H48.0994H46.5994C46.5994 37.1721 46.3079 37.8561 45.3765 38.7571C44.4041 39.6977 42.9126 40.7028 40.7984 42.0379L41.5994 43.3062ZM48.0994 36.4704H49.5994C49.5994 36.4655 49.5994 36.4606 49.5994 36.4557C49.5994 36.4508 49.5994 36.4459 49.5994 36.4409C49.5994 36.436 49.5994 36.4311 49.5994 36.4261C49.5994 36.4212 49.5994 36.4163 49.5994 36.4113C49.5994 36.4063 49.5994 36.4014 49.5994 36.3964C49.5994 36.3914 49.5994 36.3865 49.5994 36.3815C49.5994 36.3765 49.5994 36.3715 49.5994 36.3665C49.5994 36.3615 49.5994 36.3565 49.5994 36.3514C49.5994 36.3464 49.5994 36.3414 49.5994 36.3364C49.5994 36.3313 49.5994 36.3263 49.5994 36.3212C49.5994 36.3162 49.5994 36.3111 49.5994 36.306C49.5994 36.301 49.5994 36.2959 49.5994 36.2908C49.5994 36.2857 49.5994 36.2806 49.5994 36.2755C49.5994 36.2704 49.5994 36.2653 49.5994 36.2602C49.5994 36.2551 49.5994 36.2499 49.5994 36.2448C49.5994 36.2397 49.5994 36.2345 49.5994 36.2294C49.5994 36.2242 49.5994 36.2191 49.5994 36.2139C49.5994 36.2088 49.5994 36.2036 49.5994 36.1984C49.5994 36.1932 49.5994 36.188 49.5994 36.1829C49.5994 36.1777 49.5994 36.1725 49.5994 36.1672C49.5994 36.162 49.5994 36.1568 49.5994 36.1516C49.5994 36.1464 49.5994 36.1411 49.5994 36.1359C49.5994 36.1307 49.5994 36.1254 49.5994 36.1202C49.5994 36.1149 49.5994 36.1097 49.5994 36.1044C49.5994 36.0991 49.5994 36.0938 49.5994 36.0886C49.5994 36.0833 49.5994 36.078 49.5994 36.0727C49.5994 36.0674 49.5994 36.0621 49.5994 36.0568C49.5994 36.0515 49.5994 36.0461 49.5994 36.0408C49.5994 36.0355 49.5994 36.0302 49.5994 36.0248C49.5994 36.0195 49.5994 36.0141 49.5994 36.0088C49.5994 36.0034 49.5994 35.9981 49.5994 35.9927C49.5994 35.9873 49.5994 35.9819 49.5994 35.9766C49.5994 35.9712 49.5994 35.9658 49.5994 35.9604C49.5994 35.955 49.5994 35.9496 49.5994 35.9442C49.5994 35.9388 49.5994 35.9334 49.5994 35.9279C49.5994 35.9225 49.5994 35.9171 49.5994 35.9117C49.5994 35.9062 49.5994 35.9008 49.5994 35.8953C49.5994 35.8899 49.5994 35.8844 49.5994 35.879C49.5994 35.8735 49.5994 35.868 49.5994 35.8626C49.5994 35.8571 49.5994 35.8516 49.5994 35.8461C49.5994 35.8406 49.5994 35.8351 49.5994 35.8296C49.5994 35.8241 49.5994 35.8186 49.5994 35.8131C49.5994 35.8076 49.5994 35.8021 49.5994 35.7965C49.5994 35.791 49.5994 35.7855 49.5994 35.7799C49.5994 35.7744 49.5994 35.7688 49.5994 35.7633C49.5994 35.7577 49.5994 35.7522 49.5994 35.7466C49.5994 35.7411 49.5994 35.7355 49.5994 35.7299C49.5994 35.7243 49.5994 35.7188 49.5994 35.7132C49.5994 35.7076 49.5994 35.702 49.5994 35.6964C49.5994 35.6908 49.5994 35.6852 49.5994 35.6796C49.5994 35.6739 49.5994 35.6683 49.5994 35.6627C49.5994 35.6571 49.5994 35.6514 49.5994 35.6458C49.5994 35.6402 49.5994 35.6345 49.5994 35.6289C49.5994 35.6232 49.5994 35.6176 49.5994 35.6119C49.5994 35.6063 49.5994 35.6006 49.5994 35.5949C49.5994 35.5892 49.5994 35.5836 49.5994 35.5779C49.5994 35.5722 49.5994 35.5665 49.5994 35.5608C49.5994 35.5551 49.5994 35.5494 49.5994 35.5437C49.5994 35.538 49.5994 35.5323 49.5994 35.5266C49.5994 35.5209 49.5994 35.5152 49.5994 35.5094C49.5994 35.5037 49.5994 35.498 49.5994 35.4922C49.5994 35.4865 49.5994 35.4808 49.5994 35.475C49.5994 35.4693 49.5994 35.4635 49.5994 35.4577C49.5994 35.452 49.5994 35.4462 49.5994 35.4405C49.5994 35.4347 49.5994 35.4289 49.5994 35.4231C49.5994 35.4173 49.5994 35.4116 49.5994 35.4058C49.5994 35.4 49.5994 35.3942 49.5994 35.3884C49.5994 35.3826 49.5994 35.3768 49.5994 35.371C49.5994 35.3652 49.5994 35.3593 49.5994 35.3535C49.5994 35.3477 49.5994 35.3419 49.5994 35.3361C49.5994 35.3302 49.5994 35.3244 49.5994 35.3185C49.5994 35.3127 49.5994 35.3069 49.5994 35.301C49.5994 35.2952 49.5994 35.2893 49.5994 35.2834C49.5994 35.2776 49.5994 35.2717 49.5994 35.2659C49.5994 35.26 49.5994 35.2541 49.5994 35.2482C49.5994 35.2424 49.5994 35.2365 49.5994 35.2306C49.5994 35.2247 49.5994 35.2188 49.5994 35.2129C49.5994 35.207 49.5994 35.2011 49.5994 35.1952C49.5994 35.1893 49.5994 35.1834 49.5994 35.1775C49.5994 35.1716 49.5994 35.1656 49.5994 35.1597C49.5994 35.1538 49.5994 35.1479 49.5994 35.1419C49.5994 35.136 49.5994 35.1301 49.5994 35.1241C49.5994 35.1182 49.5994 35.1122 49.5994 35.1063C49.5994 35.1003 49.5994 35.0944 49.5994 35.0884C49.5994 35.0825 49.5994 35.0765 49.5994 35.0706C49.5994 35.0646 49.5994 35.0586 49.5994 35.0526C49.5994 35.0467 49.5994 35.0407 49.5994 35.0347C49.5994 35.0287 49.5994 35.0227 49.5994 35.0167C49.5994 35.0108 49.5994 35.0048 49.5994 34.9988C49.5994 34.9928 49.5994 34.9868 49.5994 34.9808C49.5994 34.9748 49.5994 34.9687 49.5994 34.9627C49.5994 34.9567 49.5994 34.9507 49.5994 34.9447C49.5994 34.9387 49.5994 34.9326 49.5994 34.9266C49.5994 34.9206 49.5994 34.9145 49.5994 34.9085C49.5994 34.9025 49.5994 34.8964 49.5994 34.8904C49.5994 34.8843 49.5994 34.8783 49.5994 34.8722C49.5994 34.8662 49.5994 34.8601 49.5994 34.8541C49.5994 34.848 49.5994 34.842 49.5994 34.8359C49.5994 34.8298 49.5994 34.8238 49.5994 34.8177C49.5994 34.8116 49.5994 34.8056 49.5994 34.7995C49.5994 34.7934 49.5994 34.7873 49.5994 34.7812C49.5994 34.7752 49.5994 34.7691 49.5994 34.763C49.5994 34.7569 49.5994 34.7508 49.5994 34.7447C49.5994 34.7386 49.5994 34.7325 49.5994 34.7264C49.5994 34.7203 49.5994 34.7142 49.5994 34.7081C49.5994 34.702 49.5994 34.6958 49.5994 34.6897C49.5994 34.6836 49.5994 34.6775 49.5994 34.6714C49.5994 34.6652 49.5994 34.6591 49.5994 34.653C49.5994 34.6469 49.5994 34.6407 49.5994 34.6346C49.5994 34.6285 49.5994 34.6223 49.5994 34.6162C49.5994 34.61 49.5994 34.6039 49.5994 34.5978C49.5994 34.5916 49.5994 34.5855 49.5994 34.5793C49.5994 34.5732 49.5994 34.567 49.5994 34.5609C49.5994 34.5547 49.5994 34.5485 49.5994 34.5424C49.5994 34.5362 49.5994 34.5301 49.5994 34.5239C49.5994 34.5177 49.5994 34.5115 49.5994 34.5054C49.5994 34.4992 49.5994 34.493 49.5994 34.4869C49.5994 34.4807 49.5994 34.4745 49.5994 34.4683C49.5994 34.4621 49.5994 34.456 49.5994 34.4498C49.5994 34.4436 49.5994 34.4374 49.5994 34.4312C49.5994 34.425 49.5994 34.4188 49.5994 34.4126C49.5994 34.4064 49.5994 34.4002 49.5994 34.394C49.5994 34.3878 49.5994 34.3816 49.5994 34.3754C49.5994 34.3692 49.5994 34.363 49.5994 34.3568C49.5994 34.3506 49.5994 34.3444 49.5994 34.3382C49.5994 34.332 49.5994 34.3257 49.5994 34.3195C49.5994 34.3133 49.5994 34.3071 49.5994 34.3009C49.5994 34.2946 49.5994 34.2884 49.5994 34.2822C49.5994 34.276 49.5994 34.2697 49.5994 34.2635C49.5994 34.2573 49.5994 34.2511 49.5994 34.2448C49.5994 34.2386 49.5994 34.2324 49.5994 34.2261C49.5994 34.2199 49.5994 34.2137 49.5994 34.2074C49.5994 34.2012 49.5994 34.1949 49.5994 34.1887C49.5994 34.1824 49.5994 34.1762 49.5994 34.17C49.5994 34.1637 49.5994 34.1575 49.5994 34.1512C49.5994 34.145 49.5994 34.1387 49.5994 34.1325C49.5994 34.1262 49.5994 34.12 49.5994 34.1137C49.5994 34.1075 49.5994 34.1012 49.5994 34.0949C49.5994 34.0887 49.5994 34.0824 49.5994 34.0762C49.5994 34.0699 49.5994 34.0636 49.5994 34.0574C49.5994 34.0511 49.5994 34.0449 49.5994 34.0386C49.5994 34.0323 49.5994 34.0261 49.5994 34.0198C49.5994 34.0135 49.5994 34.0073 49.5994 34.001C49.5994 33.9947 49.5994 33.9884 49.5994 33.9822C49.5994 33.9759 49.5994 33.9696 49.5994 33.9634C49.5994 33.9571 49.5994 33.9508 49.5994 33.9445C49.5994 33.9383 49.5994 33.932 49.5994 33.9257C49.5994 33.9194 49.5994 33.9131 49.5994 33.9069C49.5994 33.9006 49.5994 33.8943 49.5994 33.888C49.5994 33.8817 49.5994 33.8755 49.5994 33.8692C49.5994 33.8629 49.5994 33.8566 49.5994 33.8503C49.5994 33.844 49.5994 33.8378 49.5994 33.8315C49.5994 33.8252 49.5994 33.8189 49.5994 33.8126C49.5994 33.8063 49.5994 33.8 49.5994 33.7938C49.5994 33.7875 49.5994 33.7812 49.5994 33.7749C49.5994 33.7686 49.5994 33.7623 49.5994 33.756C49.5994 33.7497 49.5994 33.7434 49.5994 33.7371C49.5994 33.7309 49.5994 33.7246 49.5994 33.7183C49.5994 33.712 49.5994 33.7057 49.5994 33.6994C49.5994 33.6931 49.5994 33.6868 49.5994 33.6805C49.5994 33.6742 49.5994 33.6679 49.5994 33.6616C49.5994 33.6554 49.5994 33.6491 49.5994 33.6428C49.5994 33.6365 49.5994 33.6302 49.5994 33.6239C49.5994 33.6176 49.5994 33.6113 49.5994 33.605C49.5994 33.5987 49.5994 33.5924 49.5994 33.5861C49.5994 33.5798 49.5994 33.5735 49.5994 33.5672C49.5994 33.561 49.5994 33.5547 49.5994 33.5484C49.5994 33.5421 49.5994 33.5358 49.5994 33.5295C49.5994 33.5232 49.5994 33.5169 49.5994 33.5106C49.5994 33.5043 49.5994 33.498 49.5994 33.4917C49.5994 33.4854 49.5994 33.4792 49.5994 33.4729C49.5994 33.4666 49.5994 33.4603 49.5994 33.454C49.5994 33.4477 49.5994 33.4414 49.5994 33.4351C49.5994 33.4288 49.5994 33.4225 49.5994 33.4163C49.5994 33.41 49.5994 33.4037 49.5994 33.3974C49.5994 33.3911 49.5994 33.3848 49.5994 33.3785C49.5994 33.3722 49.5994 33.366 49.5994 33.3597C49.5994 33.3534 49.5994 33.3471 49.5994 33.3408C49.5994 33.3345 49.5994 33.3283 49.5994 33.322C49.5994 33.3157 49.5994 33.3094 49.5994 33.3031C49.5994 33.2969 49.5994 33.2906 49.5994 33.2843C49.5994 33.278 49.5994 33.2717 49.5994 33.2655C49.5994 33.2592 49.5994 33.2529 49.5994 33.2466C49.5994 33.2404 49.5994 33.2341 49.5994 33.2278C49.5994 33.2215 49.5994 33.2153 49.5994 33.209C49.5994 33.2027 49.5994 33.1964 49.5994 33.1902C49.5994 33.1839 49.5994 33.1776 49.5994 33.1714C49.5994 33.1651 49.5994 33.1588 49.5994 33.1526C49.5994 33.1463 49.5994 33.1401 49.5994 33.1338C49.5994 33.1275 49.5994 33.1213 49.5994 33.115C49.5994 33.1088 49.5994 33.1025 49.5994 33.0962C49.5994 33.09 49.5994 33.0837 49.5994 33.0775C49.5994 33.0712 49.5994 33.065 49.5994 33.0587C49.5994 33.0525 49.5994 33.0462 49.5994 33.04C49.5994 33.0337 49.5994 33.0275 49.5994 33.0212C49.5994 33.015 49.5994 33.0087 49.5994 33.0025C49.5994 32.9963 49.5994 32.99 49.5994 32.9838C49.5994 32.9775 49.5994 32.9713 49.5994 32.9651C49.5994 32.9588 49.5994 32.9526 49.5994 32.9464C49.5994 32.9402 49.5994 32.9339 49.5994 32.9277C49.5994 32.9215 49.5994 32.9152 49.5994 32.909C49.5994 32.9028 49.5994 32.8966 49.5994 32.8904C49.5994 32.8841 49.5994 32.8779 49.5994 32.8717C49.5994 32.8655 49.5994 32.8593 49.5994 32.8531C49.5994 32.8469 49.5994 32.8406 49.5994 32.8344C49.5994 32.8282 49.5994 32.822 49.5994 32.8158C49.5994 32.8096 49.5994 32.8034 49.5994 32.7972C49.5994 32.791 49.5994 32.7848 49.5994 32.7786C49.5994 32.7724 49.5994 32.7662 49.5994 32.7601C49.5994 32.7539 49.5994 32.7477 49.5994 32.7415C49.5994 32.7353 49.5994 32.7291 49.5994 32.7229C49.5994 32.7168 49.5994 32.7106 49.5994 32.7044C49.5994 32.6982 49.5994 32.6921 49.5994 32.6859C49.5994 32.6797 49.5994 32.6736 49.5994 32.6674C49.5994 32.6612 49.5994 32.6551 49.5994 32.6489C49.5994 32.6427 49.5994 32.6366 49.5994 32.6304C49.5994 32.6243 49.5994 32.6181 49.5994 32.612C49.5994 32.6058 49.5994 32.5997 49.5994 32.5935C49.5994 32.5874 49.5994 32.5813 49.5994 32.5751C49.5994 32.569 49.5994 32.5628 49.5994 32.5567C49.5994 32.5506 49.5994 32.5445 49.5994 32.5383C49.5994 32.5322 49.5994 32.5261 49.5994 32.52C49.5994 32.5138 49.5994 32.5077 49.5994 32.5016C49.5994 32.4955 49.5994 32.4894 49.5994 32.4833C49.5994 32.4772 49.5994 32.4711 49.5994 32.465C49.5994 32.4589 49.5994 32.4528 49.5994 32.4467C49.5994 32.4406 49.5994 32.4345 49.5994 32.4284C49.5994 32.4223 49.5994 32.4162 49.5994 32.4101C49.5994 32.4041 49.5994 32.398 49.5994 32.3919C49.5994 32.3858 49.5994 32.3798 49.5994 32.3737C49.5994 32.3676 49.5994 32.3615 49.5994 32.3555C49.5994 32.3494 49.5994 32.3434 49.5994 32.3373C49.5994 32.3313 49.5994 32.3252 49.5994 32.3192C49.5994 32.3131 49.5994 32.3071 49.5994 32.301C49.5994 32.295 49.5994 32.2889 49.5994 32.2829C49.5994 32.2769 49.5994 32.2709 49.5994 32.2648C49.5994 32.2588 49.5994 32.2528 49.5994 32.2468C49.5994 32.2407 49.5994 32.2347 49.5994 32.2287C49.5994 32.2227 49.5994 32.2167 49.5994 32.2107C49.5994 32.2047 49.5994 32.1987 49.5994 32.1927C49.5994 32.1867 49.5994 32.1807 49.5994 32.1747C49.5994 32.1687 49.5994 32.1628 49.5994 32.1568C49.5994 32.1508 49.5994 32.1448 49.5994 32.1389C49.5994 32.1329 49.5994 32.1269 49.5994 32.1209C49.5994 32.115 49.5994 32.109 49.5994 32.1031C49.5994 32.0971 49.5994 32.0912 49.5994 32.0852C49.5994 32.0793 49.5994 32.0733 49.5994 32.0674C49.5994 32.0615 49.5994 32.0555 49.5994 32.0496C49.5994 32.0437 49.5994 32.0377 49.5994 32.0318C49.5994 32.0259 49.5994 32.02 49.5994 32.0141C49.5994 32.0082 49.5994 32.0023 49.5994 31.9964C49.5994 31.9905 49.5994 31.9846 49.5994 31.9787C49.5994 31.9728 49.5994 31.9669 49.5994 31.961C49.5994 31.9551 49.5994 31.9492 49.5994 31.9434C49.5994 31.9375 49.5994 31.9316 49.5994 31.9258C49.5994 31.9199 49.5994 31.914 49.5994 31.9082C49.5994 31.9023 49.5994 31.8965 49.5994 31.8906C49.5994 31.8848 49.5994 31.8789 49.5994 31.8731C49.5994 31.8673 49.5994 31.8614 49.5994 31.8556C49.5994 31.8498 49.5994 31.844 49.5994 31.8381C49.5994 31.8323 49.5994 31.8265 49.5994 31.8207C49.5994 31.8149 49.5994 31.8091 49.5994 31.8033C49.5994 31.7975 49.5994 31.7917 49.5994 31.7859C49.5994 31.7801 49.5994 31.7744 49.5994 31.7686C49.5994 31.7628 49.5994 31.757 49.5994 31.7513C49.5994 31.7455 49.5994 31.7397 49.5994 31.734C49.5994 31.7282 49.5994 31.7225 49.5994 31.7167C49.5994 31.711 49.5994 31.7053 49.5994 31.6995C49.5994 31.6938 49.5994 31.6881 49.5994 31.6823C49.5994 31.6766 49.5994 31.6709 49.5994 31.6652C49.5994 31.6595 49.5994 31.6538 49.5994 31.6481C49.5994 31.6424 49.5994 31.6367 49.5994 31.631C49.5994 31.6253 49.5994 31.6196 49.5994 31.6139C49.5994 31.6082 49.5994 31.6026 49.5994 31.5969C49.5994 31.5912 49.5994 31.5856 49.5994 31.5799C49.5994 31.5743 49.5994 31.5686 49.5994 31.563C49.5994 31.5573 49.5994 31.5517 49.5994 31.5461C49.5994 31.5404 49.5994 31.5348 49.5994 31.5292C49.5994 31.5236 49.5994 31.5179 49.5994 31.5123C49.5994 31.5067 49.5994 31.5011 49.5994 31.4955C49.5994 31.4899 49.5994 31.4843 49.5994 31.4788C49.5994 31.4732 49.5994 31.4676 49.5994 31.462C49.5994 31.4564 49.5994 31.4509 49.5994 31.4453C49.5994 31.4398 49.5994 31.4342 49.5994 31.4287C49.5994 31.4231 49.5994 31.4176 49.5994 31.412C49.5994 31.4065 49.5994 31.401 49.5994 31.3955C49.5994 31.3899 49.5994 31.3844 49.5994 31.3789C49.5994 31.3734 49.5994 31.3679 49.5994 31.3624C49.5994 31.3569 49.5994 31.3514 49.5994 31.3459C49.5994 31.3404 49.5994 31.335 49.5994 31.3295C49.5994 31.324 49.5994 31.3186 49.5994 31.3131C49.5994 31.3076 49.5994 31.3022 49.5994 31.2967C49.5994 31.2913 49.5994 31.2859 49.5994 31.2804C49.5994 31.275 49.5994 31.2696 49.5994 31.2642C49.5994 31.2587 49.5994 31.2533 49.5994 31.2479C49.5994 31.2425 49.5994 31.2371 49.5994 31.2317C49.5994 31.2263 49.5994 31.221 49.5994 31.2156C49.5994 31.2102 49.5994 31.2048 49.5994 31.1995C49.5994 31.1941 49.5994 31.1887 49.5994 31.1834C49.5994 31.1781 49.5994 31.1727 49.5994 31.1674C49.5994 31.162 49.5994 31.1567 49.5994 31.1514C49.5994 31.1461 49.5994 31.1408 49.5994 31.1355C49.5994 31.1301 49.5994 31.1248 49.5994 31.1196C49.5994 31.1143 49.5994 31.109 49.5994 31.1037C49.5994 31.0984 49.5994 31.0932 49.5994 31.0879C49.5994 31.0826 49.5994 31.0774 49.5994 31.0721C49.5994 31.0669 49.5994 31.0616 49.5994 31.0564C49.5994 31.0512 49.5994 31.0459 49.5994 31.0407C49.5994 31.0355 49.5994 31.0303 49.5994 31.0251C49.5994 31.0199 49.5994 31.0147 49.5994 31.0095C49.5994 31.0043 49.5994 30.9991 49.5994 30.994C49.5994 30.9888 49.5994 30.9836 49.5994 30.9785C49.5994 30.9733 49.5994 30.9682 49.5994 30.963C49.5994 30.9579 49.5994 30.9527 49.5994 30.9476C49.5994 30.9425 49.5994 30.9374 49.5994 30.9322C49.5994 30.9271 49.5994 30.922 49.5994 30.9169C49.5994 30.9118 49.5994 30.9068 49.5994 30.9017C49.5994 30.8966 49.5994 30.8915 49.5994 30.8865C49.5994 30.8814 49.5994 30.8763 49.5994 30.8713C49.5994 30.8662 49.5994 30.8612 49.5994 30.8562C49.5994 30.8511 49.5994 30.8461 49.5994 30.8411C49.5994 30.8361 49.5994 30.8311 49.5994 30.8261C49.5994 30.8211 49.5994 30.8161 49.5994 30.8111C49.5994 30.8061 49.5994 30.8012 49.5994 30.7962C49.5994 30.7912 49.5994 30.7863 49.5994 30.7813C49.5994 30.7764 49.5994 30.7714 49.5994 30.7665C49.5994 30.7616 49.5994 30.7566 49.5994 30.7517C49.5994 30.7468 49.5994 30.7419 49.5994 30.737C49.5994 30.7321 49.5994 30.7272 49.5994 30.7223C49.5994 30.7174 49.5994 30.7126 49.5994 30.7077C49.5994 30.7028 49.5994 30.698 49.5994 30.6931C49.5994 30.6883 49.5994 30.6835 49.5994 30.6786C49.5994 30.6738 49.5994 30.669 49.5994 30.6642C49.5994 30.6594 49.5994 30.6546 49.5994 30.6498C49.5994 30.645 49.5994 30.6402 49.5994 30.6354C49.5994 30.6306 49.5994 30.6259 49.5994 30.6211C49.5994 30.6163 49.5994 30.6116 49.5994 30.6068C49.5994 30.6021 49.5994 30.5974 49.5994 30.5927C49.5994 30.5879 49.5994 30.5832 49.5994 30.5785C49.5994 30.5738 49.5994 30.5691 49.5994 30.5644C49.5994 30.5597 49.5994 30.5551 49.5994 30.5504C49.5994 30.5457 49.5994 30.5411 49.5994 30.5364C49.5994 30.5318 49.5994 30.5271 49.5994 30.5225C49.5994 30.5179 49.5994 30.5132 49.5994 30.5086C49.5994 30.504 49.5994 30.4994 49.5994 30.4948C49.5994 30.4902 49.5994 30.4856 49.5994 30.4811C49.5994 30.4765 49.5994 30.4719 49.5994 30.4674C49.5994 30.4628 49.5994 30.4583 49.5994 30.4537C49.5994 30.4492 49.5994 30.4447 49.5994 30.4402C49.5994 30.4356 49.5994 30.4311 49.5994 30.4266C49.5994 30.4221 49.5994 30.4176 49.5994 30.4132C49.5994 30.4087 49.5994 30.4042 49.5994 30.3998C49.5994 30.3953 49.5994 30.3908 49.5994 30.3864C49.5994 30.382 49.5994 30.3775 49.5994 30.3731C49.5994 30.3687 49.5994 30.3643 49.5994 30.3599C49.5994 30.3555 49.5994 30.3511 49.5994 30.3467C49.5994 30.3423 49.5994 30.338 49.5994 30.3336C49.5994 30.3292 49.5994 30.3249 49.5994 30.3206C49.5994 30.3162 49.5994 30.3119 49.5994 30.3076C49.5994 30.3032 49.5994 30.2989 49.5994 30.2946C49.5994 30.2903 49.5994 30.286 49.5994 30.2818C49.5994 30.2775 49.5994 30.2732 49.5994 30.269C49.5994 30.2647 49.5994 30.2604 49.5994 30.2562C49.5994 30.252 49.5994 30.2477 49.5994 30.2435C49.5994 30.2393 49.5994 30.2351 49.5994 30.2309C49.5994 30.2267 49.5994 30.2225 49.5994 30.2183C49.5994 30.2142 49.5994 30.21 49.5994 30.2058C49.5994 30.2017 49.5994 30.1975 49.5994 30.1934C49.5994 30.1893 49.5994 30.1852 49.5994 30.181C49.5994 30.1769 49.5994 30.1728 49.5994 30.1687C49.5994 30.1647 49.5994 30.1606 49.5994 30.1565C49.5994 30.1524 49.5994 30.1484 49.5994 30.1443C49.5994 30.1403 49.5994 30.1362 49.5994 30.1322C49.5994 30.1282 49.5994 30.1242 49.5994 30.1202C49.5994 30.1162 49.5994 30.1122 49.5994 30.1082C49.5994 30.1042 49.5994 30.1002 49.5994 30.0963C49.5994 30.0923 49.5994 30.0884 49.5994 30.0844C49.5994 30.0805 49.5994 30.0766 49.5994 30.0726C49.5994 30.0687 49.5994 30.0648 49.5994 30.0609C49.5994 30.057 49.5994 30.0532 49.5994 30.0493C49.5994 30.0454 49.5994 30.0416 49.5994 30.0377C49.5994 30.0339 49.5994 30.03 49.5994 30.0262C49.5994 30.0224 49.5994 30.0185 49.5994 30.0147C49.5994 30.0109 49.5994 30.0071 49.5994 30.0034C49.5994 29.9996 49.5994 29.9958 49.5994 29.9921C49.5994 29.9883 49.5994 29.9846 49.5994 29.9808C49.5994 29.9771 49.5994 29.9734 49.5994 29.9697C49.5994 29.9659 49.5994 29.9622 49.5994 29.9585C49.5994 29.9549 49.5994 29.9512 49.5994 29.9475C49.5994 29.9439 49.5994 29.9402 49.5994 29.9366C49.5994 29.9329 49.5994 29.9293 49.5994 29.9257C49.5994 29.9221 49.5994 29.9184 49.5994 29.9149C49.5994 29.9113 49.5994 29.9077 49.5994 29.9041C49.5994 29.9005 49.5994 29.897 49.5994 29.8934C49.5994 29.8899 49.5994 29.8863 49.5994 29.8828C49.5994 29.8793 49.5994 29.8758 49.5994 29.8723C49.5994 29.8688 49.5994 29.8653 49.5994 29.8618C49.5994 29.8584 49.5994 29.8549 49.5994 29.8514C49.5994 29.848 49.5994 29.8446 49.5994 29.8411C49.5994 29.8377 49.5994 29.8343 49.5994 29.8309C49.5994 29.8275 49.5994 29.8241 49.5994 29.8207C49.5994 29.8173 49.5994 29.814 49.5994 29.8106C49.5994 29.8073 49.5994 29.8039 49.5994 29.8006C49.5994 29.7973 49.5994 29.794 49.5994 29.7907C49.5994 29.7874 49.5994 29.7841 49.5994 29.7808C49.5994 29.7775 49.5994 29.7742 49.5994 29.771C49.5994 29.7677 49.5994 29.7645 49.5994 29.7613C49.5994 29.758 49.5994 29.7548 49.5994 29.7516C49.5994 29.7484 49.5994 29.7452 49.5994 29.7421C49.5994 29.7389 49.5994 29.7357 49.5994 29.7326C49.5994 29.7294 49.5994 29.7263 49.5994 29.7232C49.5994 29.72 49.5994 29.7169 49.5994 29.7138C49.5994 29.7107 49.5994 29.7076 49.5994 29.7046C49.5994 29.7015 49.5994 29.6984 49.5994 29.6954C49.5994 29.6923 49.5994 29.6893 49.5994 29.6863C49.5994 29.6833 49.5994 29.6802 49.5994 29.6772C49.5994 29.6743 49.5994 29.6713 49.5994 29.6683C49.5994 29.6653 49.5994 29.6624 49.5994 29.6594C49.5994 29.6565 49.5994 29.6536 49.5994 29.6506C49.5994 29.6477 49.5994 29.6448 49.5994 29.6419C49.5994 29.639 49.5994 29.6362 49.5994 29.6333C49.5994 29.6304 49.5994 29.6276 49.5994 29.6248C49.5994 29.6219 49.5994 29.6191 49.5994 29.6163C49.5994 29.6135 49.5994 29.6107 49.5994 29.6079C49.5994 29.6051 49.5994 29.6023 49.5994 29.5996C49.5994 29.5968 49.5994 29.5941 49.5994 29.5914C49.5994 29.5886 49.5994 29.5859 49.5994 29.5832C49.5994 29.5805 49.5994 29.5778 49.5994 29.5752C49.5994 29.5725 49.5994 29.5698 49.5994 29.5672C49.5994 29.5645 49.5994 29.5619 49.5994 29.5593C49.5994 29.5567 49.5994 29.5541 49.5994 29.5515C49.5994 29.5489 49.5994 29.5463 49.5994 29.5437C49.5994 29.5412 49.5994 29.5386 49.5994 29.5361C49.5994 29.5336 49.5994 29.531 49.5994 29.5285C49.5994 29.526 49.5994 29.5235 49.5994 29.521C49.5994 29.5186 49.5994 29.5161 49.5994 29.5137C49.5994 29.5112 49.5994 29.5088 49.5994 29.5063C49.5994 29.5039 49.5994 29.5015 49.5994 29.4991C49.5994 29.4967 49.5994 29.4943 49.5994 29.492C49.5994 29.4896 49.5994 29.4873 49.5994 29.4849C49.5994 29.4826 49.5994 29.4803 49.5994 29.478C49.5994 29.4757 49.5994 29.4734 49.5994 29.4711C49.5994 29.4688 49.5994 29.4665 49.5994 29.4643C49.5994 29.462 49.5994 29.4598 49.5994 29.4576C49.5994 29.4554 49.5994 29.4532 49.5994 29.451C49.5994 29.4488 49.5994 29.4466 49.5994 29.4444C49.5994 29.4423 49.5994 29.4401 49.5994 29.438C49.5994 29.4359 49.5994 29.4337 49.5994 29.4316C49.5994 29.4295 49.5994 29.4274 49.5994 29.4254C49.5994 29.4233 49.5994 29.4212 49.5994 29.4192C49.5994 29.4171 49.5994 29.4151 49.5994 29.4131C49.5994 29.4111 49.5994 29.4091 49.5994 29.4071C49.5994 29.4051 49.5994 29.4031 49.5994 29.4012C49.5994 29.3992 49.5994 29.3973 49.5994 29.3954C49.5994 29.3934 49.5994 29.3915 49.5994 29.3896C49.5994 29.3878 49.5994 29.3859 49.5994 29.384C49.5994 29.3821 49.5994 29.3803 49.5994 29.3785C49.5994 29.3766 49.5994 29.3748 49.5994 29.373C49.5994 29.3712 49.5994 29.3694 49.5994 29.3676C49.5994 29.3659 49.5994 29.3641 49.5994 29.3624C49.5994 29.3606 49.5994 29.3589 49.5994 29.3572C49.5994 29.3555 49.5994 29.3538 49.5994 29.3521C49.5994 29.3504 49.5994 29.3488 49.5994 29.3471C49.5994 29.3455 49.5994 29.3438 49.5994 29.3422C49.5994 29.3406 49.5994 29.339 49.5994 29.3374C49.5994 29.3358 49.5994 29.3342 49.5994 29.3327C49.5994 29.3311 49.5994 29.3296 49.5994 29.3281C49.5994 29.3266 49.5994 29.325 49.5994 29.3236C49.5994 29.3221 49.5994 29.3206 49.5994 29.3191C49.5994 29.3177 49.5994 29.3162 49.5994 29.3148C49.5994 29.3134 49.5994 29.3119 49.5994 29.3106C49.5994 29.3092 49.5994 29.3078 49.5994 29.3064C49.5994 29.305 49.5994 29.3037 49.5994 29.3024C49.5994 29.301 49.5994 29.2997 49.5994 29.2984C49.5994 29.2971 49.5994 29.2958 49.5994 29.2946C49.5994 29.2933 49.5994 29.292 49.5994 29.2908C49.5994 29.2896 49.5994 29.2884 49.5994 29.2871C49.5994 29.2859 49.5994 29.2848 49.5994 29.2836C49.5994 29.2824 49.5994 29.2813 49.5994 29.2801C49.5994 29.279 49.5994 29.2779 49.5994 29.2768C49.5994 29.2757 49.5994 29.2746 49.5994 29.2735C49.5994 29.2724 49.5994 29.2714 49.5994 29.2703C49.5994 29.2693 49.5994 29.2683 49.5994 29.2673C49.5994 29.2663 49.5994 29.2653 49.5994 29.2643C49.5994 29.2633 49.5994 29.2624 49.5994 29.2614C49.5994 29.2605 49.5994 29.2596 49.5994 29.2587C49.5994 29.2577 49.5994 29.2569 49.5994 29.256C49.5994 29.2551 49.5994 29.2543 49.5994 29.2534C49.5994 29.2526 49.5994 29.2518 49.5994 29.251C49.5994 29.2501 49.5994 29.2494 49.5994 29.2486C49.5994 29.2478 49.5994 29.2471 49.5994 29.2463C49.5994 29.2456 49.5994 29.2449 49.5994 29.2442C49.5994 29.2435 49.5994 29.2428 49.5994 29.2421C49.5994 29.2414 49.5994 29.2408 49.5994 29.2401C49.5994 29.2395 49.5994 29.2389 49.5994 29.2383C49.5994 29.2377 49.5994 29.2371 49.5994 29.2365C49.5994 29.236 49.5994 29.2354 49.5994 29.2349C49.5994 29.2344 49.5994 29.2339 49.5994 29.2334C49.5994 29.2329 49.5994 29.2324 49.5994 29.2319C49.5994 29.2315 49.5994 29.231 49.5994 29.2306C49.5994 29.2302 49.5994 29.2298 49.5994 29.2294C49.5994 29.229 49.5994 29.2286 49.5994 29.2282C49.5994 29.2279 49.5994 29.2275 49.5994 29.2272C49.5994 29.2269 49.5994 29.2266 49.5994 29.2263C49.5994 29.226 49.5994 29.2258 49.5994 29.2255C49.5994 29.2253 49.5994 29.225 49.5994 29.2248C49.5994 29.2246 49.5994 29.2244 49.5994 29.2242C49.5994 29.224 49.5994 29.2239 49.5994 29.2237C49.5994 29.2236 49.5994 29.2235 49.5994 29.2233C49.5994 29.2232 49.5994 29.2231 49.5994 29.2231C49.5994 29.223 49.5994 29.2229 49.5994 29.2229C49.5994 29.2229 49.5994 29.2229 48.0994 29.2229C46.5994 29.2229 46.5994 29.2229 46.5994 29.2229C46.5994 29.2229 46.5994 29.223 46.5994 29.2231C46.5994 29.2231 46.5994 29.2232 46.5994 29.2233C46.5994 29.2235 46.5994 29.2236 46.5994 29.2237C46.5994 29.2239 46.5994 29.224 46.5994 29.2242C46.5994 29.2244 46.5994 29.2246 46.5994 29.2248C46.5994 29.225 46.5994 29.2253 46.5994 29.2255C46.5994 29.2258 46.5994 29.226 46.5994 29.2263C46.5994 29.2266 46.5994 29.2269 46.5994 29.2272C46.5994 29.2275 46.5994 29.2279 46.5994 29.2282C46.5994 29.2286 46.5994 29.229 46.5994 29.2294C46.5994 29.2298 46.5994 29.2302 46.5994 29.2306C46.5994 29.231 46.5994 29.2315 46.5994 29.2319C46.5994 29.2324 46.5994 29.2329 46.5994 29.2334C46.5994 29.2339 46.5994 29.2344 46.5994 29.2349C46.5994 29.2354 46.5994 29.236 46.5994 29.2365C46.5994 29.2371 46.5994 29.2377 46.5994 29.2383C46.5994 29.2389 46.5994 29.2395 46.5994 29.2401C46.5994 29.2408 46.5994 29.2414 46.5994 29.2421C46.5994 29.2428 46.5994 29.2435 46.5994 29.2442C46.5994 29.2449 46.5994 29.2456 46.5994 29.2463C46.5994 29.2471 46.5994 29.2478 46.5994 29.2486C46.5994 29.2494 46.5994 29.2501 46.5994 29.251C46.5994 29.2518 46.5994 29.2526 46.5994 29.2534C46.5994 29.2543 46.5994 29.2551 46.5994 29.256C46.5994 29.2569 46.5994 29.2577 46.5994 29.2587C46.5994 29.2596 46.5994 29.2605 46.5994 29.2614C46.5994 29.2624 46.5994 29.2633 46.5994 29.2643C46.5994 29.2653 46.5994 29.2663 46.5994 29.2673C46.5994 29.2683 46.5994 29.2693 46.5994 29.2703C46.5994 29.2714 46.5994 29.2724 46.5994 29.2735C46.5994 29.2746 46.5994 29.2757 46.5994 29.2768C46.5994 29.2779 46.5994 29.279 46.5994 29.2801C46.5994 29.2813 46.5994 29.2824 46.5994 29.2836C46.5994 29.2848 46.5994 29.2859 46.5994 29.2871C46.5994 29.2884 46.5994 29.2896 46.5994 29.2908C46.5994 29.292 46.5994 29.2933 46.5994 29.2946C46.5994 29.2958 46.5994 29.2971 46.5994 29.2984C46.5994 29.2997 46.5994 29.301 46.5994 29.3024C46.5994 29.3037 46.5994 29.305 46.5994 29.3064C46.5994 29.3078 46.5994 29.3092 46.5994 29.3106C46.5994 29.3119 46.5994 29.3134 46.5994 29.3148C46.5994 29.3162 46.5994 29.3177 46.5994 29.3191C46.5994 29.3206 46.5994 29.3221 46.5994 29.3236C46.5994 29.325 46.5994 29.3266 46.5994 29.3281C46.5994 29.3296 46.5994 29.3311 46.5994 29.3327C46.5994 29.3342 46.5994 29.3358 46.5994 29.3374C46.5994 29.339 46.5994 29.3406 46.5994 29.3422C46.5994 29.3438 46.5994 29.3455 46.5994 29.3471C46.5994 29.3488 46.5994 29.3504 46.5994 29.3521C46.5994 29.3538 46.5994 29.3555 46.5994 29.3572C46.5994 29.3589 46.5994 29.3606 46.5994 29.3624C46.5994 29.3641 46.5994 29.3659 46.5994 29.3676C46.5994 29.3694 46.5994 29.3712 46.5994 29.373C46.5994 29.3748 46.5994 29.3766 46.5994 29.3785C46.5994 29.3803 46.5994 29.3821 46.5994 29.384C46.5994 29.3859 46.5994 29.3878 46.5994 29.3896C46.5994 29.3915 46.5994 29.3934 46.5994 29.3954C46.5994 29.3973 46.5994 29.3992 46.5994 29.4012C46.5994 29.4031 46.5994 29.4051 46.5994 29.4071C46.5994 29.4091 46.5994 29.4111 46.5994 29.4131C46.5994 29.4151 46.5994 29.4171 46.5994 29.4192C46.5994 29.4212 46.5994 29.4233 46.5994 29.4254C46.5994 29.4274 46.5994 29.4295 46.5994 29.4316C46.5994 29.4337 46.5994 29.4359 46.5994 29.438C46.5994 29.4401 46.5994 29.4423 46.5994 29.4444C46.5994 29.4466 46.5994 29.4488 46.5994 29.451C46.5994 29.4532 46.5994 29.4554 46.5994 29.4576C46.5994 29.4598 46.5994 29.462 46.5994 29.4643C46.5994 29.4665 46.5994 29.4688 46.5994 29.4711C46.5994 29.4734 46.5994 29.4757 46.5994 29.478C46.5994 29.4803 46.5994 29.4826 46.5994 29.4849C46.5994 29.4873 46.5994 29.4896 46.5994 29.492C46.5994 29.4943 46.5994 29.4967 46.5994 29.4991C46.5994 29.5015 46.5994 29.5039 46.5994 29.5063C46.5994 29.5088 46.5994 29.5112 46.5994 29.5137C46.5994 29.5161 46.5994 29.5186 46.5994 29.521C46.5994 29.5235 46.5994 29.526 46.5994 29.5285C46.5994 29.531 46.5994 29.5336 46.5994 29.5361C46.5994 29.5386 46.5994 29.5412 46.5994 29.5437C46.5994 29.5463 46.5994 29.5489 46.5994 29.5515C46.5994 29.5541 46.5994 29.5567 46.5994 29.5593C46.5994 29.5619 46.5994 29.5645 46.5994 29.5672C46.5994 29.5698 46.5994 29.5725 46.5994 29.5752C46.5994 29.5778 46.5994 29.5805 46.5994 29.5832C46.5994 29.5859 46.5994 29.5886 46.5994 29.5914C46.5994 29.5941 46.5994 29.5968 46.5994 29.5996C46.5994 29.6023 46.5994 29.6051 46.5994 29.6079C46.5994 29.6107 46.5994 29.6135 46.5994 29.6163C46.5994 29.6191 46.5994 29.6219 46.5994 29.6248C46.5994 29.6276 46.5994 29.6304 46.5994 29.6333C46.5994 29.6362 46.5994 29.639 46.5994 29.6419C46.5994 29.6448 46.5994 29.6477 46.5994 29.6506C46.5994 29.6536 46.5994 29.6565 46.5994 29.6594C46.5994 29.6624 46.5994 29.6653 46.5994 29.6683C46.5994 29.6713 46.5994 29.6743 46.5994 29.6772C46.5994 29.6802 46.5994 29.6833 46.5994 29.6863C46.5994 29.6893 46.5994 29.6923 46.5994 29.6954C46.5994 29.6984 46.5994 29.7015 46.5994 29.7046C46.5994 29.7076 46.5994 29.7107 46.5994 29.7138C46.5994 29.7169 46.5994 29.72 46.5994 29.7232C46.5994 29.7263 46.5994 29.7294 46.5994 29.7326C46.5994 29.7357 46.5994 29.7389 46.5994 29.7421C46.5994 29.7452 46.5994 29.7484 46.5994 29.7516C46.5994 29.7548 46.5994 29.758 46.5994 29.7613C46.5994 29.7645 46.5994 29.7677 46.5994 29.771C46.5994 29.7742 46.5994 29.7775 46.5994 29.7808C46.5994 29.7841 46.5994 29.7874 46.5994 29.7907C46.5994 29.794 46.5994 29.7973 46.5994 29.8006C46.5994 29.8039 46.5994 29.8073 46.5994 29.8106C46.5994 29.814 46.5994 29.8173 46.5994 29.8207C46.5994 29.8241 46.5994 29.8275 46.5994 29.8309C46.5994 29.8343 46.5994 29.8377 46.5994 29.8411C46.5994 29.8446 46.5994 29.848 46.5994 29.8514C46.5994 29.8549 46.5994 29.8584 46.5994 29.8618C46.5994 29.8653 46.5994 29.8688 46.5994 29.8723C46.5994 29.8758 46.5994 29.8793 46.5994 29.8828C46.5994 29.8863 46.5994 29.8899 46.5994 29.8934C46.5994 29.897 46.5994 29.9005 46.5994 29.9041C46.5994 29.9077 46.5994 29.9113 46.5994 29.9149C46.5994 29.9184 46.5994 29.9221 46.5994 29.9257C46.5994 29.9293 46.5994 29.9329 46.5994 29.9366C46.5994 29.9402 46.5994 29.9439 46.5994 29.9475C46.5994 29.9512 46.5994 29.9549 46.5994 29.9585C46.5994 29.9622 46.5994 29.9659 46.5994 29.9697C46.5994 29.9734 46.5994 29.9771 46.5994 29.9808C46.5994 29.9846 46.5994 29.9883 46.5994 29.9921C46.5994 29.9958 46.5994 29.9996 46.5994 30.0034C46.5994 30.0071 46.5994 30.0109 46.5994 30.0147C46.5994 30.0185 46.5994 30.0224 46.5994 30.0262C46.5994 30.03 46.5994 30.0339 46.5994 30.0377C46.5994 30.0416 46.5994 30.0454 46.5994 30.0493C46.5994 30.0532 46.5994 30.057 46.5994 30.0609C46.5994 30.0648 46.5994 30.0687 46.5994 30.0726C46.5994 30.0766 46.5994 30.0805 46.5994 30.0844C46.5994 30.0884 46.5994 30.0923 46.5994 30.0963C46.5994 30.1002 46.5994 30.1042 46.5994 30.1082C46.5994 30.1122 46.5994 30.1162 46.5994 30.1202C46.5994 30.1242 46.5994 30.1282 46.5994 30.1322C46.5994 30.1362 46.5994 30.1403 46.5994 30.1443C46.5994 30.1484 46.5994 30.1524 46.5994 30.1565C46.5994 30.1606 46.5994 30.1647 46.5994 30.1687C46.5994 30.1728 46.5994 30.1769 46.5994 30.181C46.5994 30.1852 46.5994 30.1893 46.5994 30.1934C46.5994 30.1975 46.5994 30.2017 46.5994 30.2058C46.5994 30.21 46.5994 30.2142 46.5994 30.2183C46.5994 30.2225 46.5994 30.2267 46.5994 30.2309C46.5994 30.2351 46.5994 30.2393 46.5994 30.2435C46.5994 30.2477 46.5994 30.252 46.5994 30.2562C46.5994 30.2604 46.5994 30.2647 46.5994 30.269C46.5994 30.2732 46.5994 30.2775 46.5994 30.2818C46.5994 30.286 46.5994 30.2903 46.5994 30.2946C46.5994 30.2989 46.5994 30.3032 46.5994 30.3076C46.5994 30.3119 46.5994 30.3162 46.5994 30.3206C46.5994 30.3249 46.5994 30.3292 46.5994 30.3336C46.5994 30.338 46.5994 30.3423 46.5994 30.3467C46.5994 30.3511 46.5994 30.3555 46.5994 30.3599C46.5994 30.3643 46.5994 30.3687 46.5994 30.3731C46.5994 30.3775 46.5994 30.382 46.5994 30.3864C46.5994 30.3908 46.5994 30.3953 46.5994 30.3998C46.5994 30.4042 46.5994 30.4087 46.5994 30.4132C46.5994 30.4176 46.5994 30.4221 46.5994 30.4266C46.5994 30.4311 46.5994 30.4356 46.5994 30.4402C46.5994 30.4447 46.5994 30.4492 46.5994 30.4537C46.5994 30.4583 46.5994 30.4628 46.5994 30.4674C46.5994 30.4719 46.5994 30.4765 46.5994 30.4811C46.5994 30.4856 46.5994 30.4902 46.5994 30.4948C46.5994 30.4994 46.5994 30.504 46.5994 30.5086C46.5994 30.5132 46.5994 30.5179 46.5994 30.5225C46.5994 30.5271 46.5994 30.5318 46.5994 30.5364C46.5994 30.5411 46.5994 30.5457 46.5994 30.5504C46.5994 30.5551 46.5994 30.5597 46.5994 30.5644C46.5994 30.5691 46.5994 30.5738 46.5994 30.5785C46.5994 30.5832 46.5994 30.5879 46.5994 30.5927C46.5994 30.5974 46.5994 30.6021 46.5994 30.6068C46.5994 30.6116 46.5994 30.6163 46.5994 30.6211C46.5994 30.6259 46.5994 30.6306 46.5994 30.6354C46.5994 30.6402 46.5994 30.645 46.5994 30.6498C46.5994 30.6546 46.5994 30.6594 46.5994 30.6642C46.5994 30.669 46.5994 30.6738 46.5994 30.6786C46.5994 30.6835 46.5994 30.6883 46.5994 30.6931C46.5994 30.698 46.5994 30.7028 46.5994 30.7077C46.5994 30.7126 46.5994 30.7174 46.5994 30.7223C46.5994 30.7272 46.5994 30.7321 46.5994 30.737C46.5994 30.7419 46.5994 30.7468 46.5994 30.7517C46.5994 30.7566 46.5994 30.7616 46.5994 30.7665C46.5994 30.7714 46.5994 30.7764 46.5994 30.7813C46.5994 30.7863 46.5994 30.7912 46.5994 30.7962C46.5994 30.8012 46.5994 30.8061 46.5994 30.8111C46.5994 30.8161 46.5994 30.8211 46.5994 30.8261C46.5994 30.8311 46.5994 30.8361 46.5994 30.8411C46.5994 30.8461 46.5994 30.8511 46.5994 30.8562C46.5994 30.8612 46.5994 30.8662 46.5994 30.8713C46.5994 30.8763 46.5994 30.8814 46.5994 30.8865C46.5994 30.8915 46.5994 30.8966 46.5994 30.9017C46.5994 30.9068 46.5994 30.9118 46.5994 30.9169C46.5994 30.922 46.5994 30.9271 46.5994 30.9322C46.5994 30.9374 46.5994 30.9425 46.5994 30.9476C46.5994 30.9527 46.5994 30.9579 46.5994 30.963C46.5994 30.9682 46.5994 30.9733 46.5994 30.9785C46.5994 30.9836 46.5994 30.9888 46.5994 30.994C46.5994 30.9991 46.5994 31.0043 46.5994 31.0095C46.5994 31.0147 46.5994 31.0199 46.5994 31.0251C46.5994 31.0303 46.5994 31.0355 46.5994 31.0407C46.5994 31.0459 46.5994 31.0512 46.5994 31.0564C46.5994 31.0616 46.5994 31.0669 46.5994 31.0721C46.5994 31.0774 46.5994 31.0826 46.5994 31.0879C46.5994 31.0932 46.5994 31.0984 46.5994 31.1037C46.5994 31.109 46.5994 31.1143 46.5994 31.1196C46.5994 31.1248 46.5994 31.1301 46.5994 31.1355C46.5994 31.1408 46.5994 31.1461 46.5994 31.1514C46.5994 31.1567 46.5994 31.162 46.5994 31.1674C46.5994 31.1727 46.5994 31.1781 46.5994 31.1834C46.5994 31.1887 46.5994 31.1941 46.5994 31.1995C46.5994 31.2048 46.5994 31.2102 46.5994 31.2156C46.5994 31.221 46.5994 31.2263 46.5994 31.2317C46.5994 31.2371 46.5994 31.2425 46.5994 31.2479C46.5994 31.2533 46.5994 31.2587 46.5994 31.2642C46.5994 31.2696 46.5994 31.275 46.5994 31.2804C46.5994 31.2859 46.5994 31.2913 46.5994 31.2967C46.5994 31.3022 46.5994 31.3076 46.5994 31.3131C46.5994 31.3186 46.5994 31.324 46.5994 31.3295C46.5994 31.335 46.5994 31.3404 46.5994 31.3459C46.5994 31.3514 46.5994 31.3569 46.5994 31.3624C46.5994 31.3679 46.5994 31.3734 46.5994 31.3789C46.5994 31.3844 46.5994 31.3899 46.5994 31.3955C46.5994 31.401 46.5994 31.4065 46.5994 31.412C46.5994 31.4176 46.5994 31.4231 46.5994 31.4287C46.5994 31.4342 46.5994 31.4398 46.5994 31.4453C46.5994 31.4509 46.5994 31.4564 46.5994 31.462C46.5994 31.4676 46.5994 31.4732 46.5994 31.4788C46.5994 31.4843 46.5994 31.4899 46.5994 31.4955C46.5994 31.5011 46.5994 31.5067 46.5994 31.5123C46.5994 31.5179 46.5994 31.5236 46.5994 31.5292C46.5994 31.5348 46.5994 31.5404 46.5994 31.5461C46.5994 31.5517 46.5994 31.5573 46.5994 31.563C46.5994 31.5686 46.5994 31.5743 46.5994 31.5799C46.5994 31.5856 46.5994 31.5912 46.5994 31.5969C46.5994 31.6026 46.5994 31.6082 46.5994 31.6139C46.5994 31.6196 46.5994 31.6253 46.5994 31.631C46.5994 31.6367 46.5994 31.6424 46.5994 31.6481C46.5994 31.6538 46.5994 31.6595 46.5994 31.6652C46.5994 31.6709 46.5994 31.6766 46.5994 31.6823C46.5994 31.6881 46.5994 31.6938 46.5994 31.6995C46.5994 31.7053 46.5994 31.711 46.5994 31.7167C46.5994 31.7225 46.5994 31.7282 46.5994 31.734C46.5994 31.7397 46.5994 31.7455 46.5994 31.7513C46.5994 31.757 46.5994 31.7628 46.5994 31.7686C46.5994 31.7744 46.5994 31.7801 46.5994 31.7859C46.5994 31.7917 46.5994 31.7975 46.5994 31.8033C46.5994 31.8091 46.5994 31.8149 46.5994 31.8207C46.5994 31.8265 46.5994 31.8323 46.5994 31.8381C46.5994 31.844 46.5994 31.8498 46.5994 31.8556C46.5994 31.8614 46.5994 31.8673 46.5994 31.8731C46.5994 31.8789 46.5994 31.8848 46.5994 31.8906C46.5994 31.8965 46.5994 31.9023 46.5994 31.9082C46.5994 31.914 46.5994 31.9199 46.5994 31.9258C46.5994 31.9316 46.5994 31.9375 46.5994 31.9434C46.5994 31.9492 46.5994 31.9551 46.5994 31.961C46.5994 31.9669 46.5994 31.9728 46.5994 31.9787C46.5994 31.9846 46.5994 31.9905 46.5994 31.9964C46.5994 32.0023 46.5994 32.0082 46.5994 32.0141C46.5994 32.02 46.5994 32.0259 46.5994 32.0318C46.5994 32.0377 46.5994 32.0437 46.5994 32.0496C46.5994 32.0555 46.5994 32.0615 46.5994 32.0674C46.5994 32.0733 46.5994 32.0793 46.5994 32.0852C46.5994 32.0912 46.5994 32.0971 46.5994 32.1031C46.5994 32.109 46.5994 32.115 46.5994 32.1209C46.5994 32.1269 46.5994 32.1329 46.5994 32.1389C46.5994 32.1448 46.5994 32.1508 46.5994 32.1568C46.5994 32.1628 46.5994 32.1687 46.5994 32.1747C46.5994 32.1807 46.5994 32.1867 46.5994 32.1927C46.5994 32.1987 46.5994 32.2047 46.5994 32.2107C46.5994 32.2167 46.5994 32.2227 46.5994 32.2287C46.5994 32.2347 46.5994 32.2407 46.5994 32.2468C46.5994 32.2528 46.5994 32.2588 46.5994 32.2648C46.5994 32.2709 46.5994 32.2769 46.5994 32.2829C46.5994 32.2889 46.5994 32.295 46.5994 32.301C46.5994 32.3071 46.5994 32.3131 46.5994 32.3192C46.5994 32.3252 46.5994 32.3313 46.5994 32.3373C46.5994 32.3434 46.5994 32.3494 46.5994 32.3555C46.5994 32.3615 46.5994 32.3676 46.5994 32.3737C46.5994 32.3798 46.5994 32.3858 46.5994 32.3919C46.5994 32.398 46.5994 32.4041 46.5994 32.4101C46.5994 32.4162 46.5994 32.4223 46.5994 32.4284C46.5994 32.4345 46.5994 32.4406 46.5994 32.4467C46.5994 32.4528 46.5994 32.4589 46.5994 32.465C46.5994 32.4711 46.5994 32.4772 46.5994 32.4833C46.5994 32.4894 46.5994 32.4955 46.5994 32.5016C46.5994 32.5077 46.5994 32.5138 46.5994 32.52C46.5994 32.5261 46.5994 32.5322 46.5994 32.5383C46.5994 32.5445 46.5994 32.5506 46.5994 32.5567C46.5994 32.5628 46.5994 32.569 46.5994 32.5751C46.5994 32.5813 46.5994 32.5874 46.5994 32.5935C46.5994 32.5997 46.5994 32.6058 46.5994 32.612C46.5994 32.6181 46.5994 32.6243 46.5994 32.6304C46.5994 32.6366 46.5994 32.6427 46.5994 32.6489C46.5994 32.6551 46.5994 32.6612 46.5994 32.6674C46.5994 32.6736 46.5994 32.6797 46.5994 32.6859C46.5994 32.6921 46.5994 32.6982 46.5994 32.7044C46.5994 32.7106 46.5994 32.7168 46.5994 32.7229C46.5994 32.7291 46.5994 32.7353 46.5994 32.7415C46.5994 32.7477 46.5994 32.7539 46.5994 32.7601C46.5994 32.7662 46.5994 32.7724 46.5994 32.7786C46.5994 32.7848 46.5994 32.791 46.5994 32.7972C46.5994 32.8034 46.5994 32.8096 46.5994 32.8158C46.5994 32.822 46.5994 32.8282 46.5994 32.8344C46.5994 32.8406 46.5994 32.8469 46.5994 32.8531C46.5994 32.8593 46.5994 32.8655 46.5994 32.8717C46.5994 32.8779 46.5994 32.8841 46.5994 32.8904C46.5994 32.8966 46.5994 32.9028 46.5994 32.909C46.5994 32.9152 46.5994 32.9215 46.5994 32.9277C46.5994 32.9339 46.5994 32.9402 46.5994 32.9464C46.5994 32.9526 46.5994 32.9588 46.5994 32.9651C46.5994 32.9713 46.5994 32.9775 46.5994 32.9838C46.5994 32.99 46.5994 32.9963 46.5994 33.0025C46.5994 33.0087 46.5994 33.015 46.5994 33.0212C46.5994 33.0275 46.5994 33.0337 46.5994 33.04C46.5994 33.0462 46.5994 33.0525 46.5994 33.0587C46.5994 33.065 46.5994 33.0712 46.5994 33.0775C46.5994 33.0837 46.5994 33.09 46.5994 33.0962C46.5994 33.1025 46.5994 33.1088 46.5994 33.115C46.5994 33.1213 46.5994 33.1275 46.5994 33.1338C46.5994 33.1401 46.5994 33.1463 46.5994 33.1526C46.5994 33.1588 46.5994 33.1651 46.5994 33.1714C46.5994 33.1776 46.5994 33.1839 46.5994 33.1902C46.5994 33.1964 46.5994 33.2027 46.5994 33.209C46.5994 33.2153 46.5994 33.2215 46.5994 33.2278C46.5994 33.2341 46.5994 33.2404 46.5994 33.2466C46.5994 33.2529 46.5994 33.2592 46.5994 33.2655C46.5994 33.2717 46.5994 33.278 46.5994 33.2843C46.5994 33.2906 46.5994 33.2969 46.5994 33.3031C46.5994 33.3094 46.5994 33.3157 46.5994 33.322C46.5994 33.3283 46.5994 33.3345 46.5994 33.3408C46.5994 33.3471 46.5994 33.3534 46.5994 33.3597C46.5994 33.366 46.5994 33.3722 46.5994 33.3785C46.5994 33.3848 46.5994 33.3911 46.5994 33.3974C46.5994 33.4037 46.5994 33.41 46.5994 33.4163C46.5994 33.4225 46.5994 33.4288 46.5994 33.4351C46.5994 33.4414 46.5994 33.4477 46.5994 33.454C46.5994 33.4603 46.5994 33.4666 46.5994 33.4729C46.5994 33.4792 46.5994 33.4854 46.5994 33.4917C46.5994 33.498 46.5994 33.5043 46.5994 33.5106C46.5994 33.5169 46.5994 33.5232 46.5994 33.5295C46.5994 33.5358 46.5994 33.5421 46.5994 33.5484C46.5994 33.5547 46.5994 33.561 46.5994 33.5672C46.5994 33.5735 46.5994 33.5798 46.5994 33.5861C46.5994 33.5924 46.5994 33.5987 46.5994 33.605C46.5994 33.6113 46.5994 33.6176 46.5994 33.6239C46.5994 33.6302 46.5994 33.6365 46.5994 33.6428C46.5994 33.6491 46.5994 33.6554 46.5994 33.6616C46.5994 33.6679 46.5994 33.6742 46.5994 33.6805C46.5994 33.6868 46.5994 33.6931 46.5994 33.6994C46.5994 33.7057 46.5994 33.712 46.5994 33.7183C46.5994 33.7246 46.5994 33.7309 46.5994 33.7371C46.5994 33.7434 46.5994 33.7497 46.5994 33.756C46.5994 33.7623 46.5994 33.7686 46.5994 33.7749C46.5994 33.7812 46.5994 33.7875 46.5994 33.7938C46.5994 33.8 46.5994 33.8063 46.5994 33.8126C46.5994 33.8189 46.5994 33.8252 46.5994 33.8315C46.5994 33.8378 46.5994 33.844 46.5994 33.8503C46.5994 33.8566 46.5994 33.8629 46.5994 33.8692C46.5994 33.8755 46.5994 33.8817 46.5994 33.888C46.5994 33.8943 46.5994 33.9006 46.5994 33.9069C46.5994 33.9131 46.5994 33.9194 46.5994 33.9257C46.5994 33.932 46.5994 33.9383 46.5994 33.9445C46.5994 33.9508 46.5994 33.9571 46.5994 33.9634C46.5994 33.9696 46.5994 33.9759 46.5994 33.9822C46.5994 33.9884 46.5994 33.9947 46.5994 34.001C46.5994 34.0073 46.5994 34.0135 46.5994 34.0198C46.5994 34.0261 46.5994 34.0323 46.5994 34.0386C46.5994 34.0449 46.5994 34.0511 46.5994 34.0574C46.5994 34.0636 46.5994 34.0699 46.5994 34.0762C46.5994 34.0824 46.5994 34.0887 46.5994 34.0949C46.5994 34.1012 46.5994 34.1075 46.5994 34.1137C46.5994 34.12 46.5994 34.1262 46.5994 34.1325C46.5994 34.1387 46.5994 34.145 46.5994 34.1512C46.5994 34.1575 46.5994 34.1637 46.5994 34.17C46.5994 34.1762 46.5994 34.1824 46.5994 34.1887C46.5994 34.1949 46.5994 34.2012 46.5994 34.2074C46.5994 34.2137 46.5994 34.2199 46.5994 34.2261C46.5994 34.2324 46.5994 34.2386 46.5994 34.2448C46.5994 34.2511 46.5994 34.2573 46.5994 34.2635C46.5994 34.2697 46.5994 34.276 46.5994 34.2822C46.5994 34.2884 46.5994 34.2946 46.5994 34.3009C46.5994 34.3071 46.5994 34.3133 46.5994 34.3195C46.5994 34.3257 46.5994 34.332 46.5994 34.3382C46.5994 34.3444 46.5994 34.3506 46.5994 34.3568C46.5994 34.363 46.5994 34.3692 46.5994 34.3754C46.5994 34.3816 46.5994 34.3878 46.5994 34.394C46.5994 34.4002 46.5994 34.4064 46.5994 34.4126C46.5994 34.4188 46.5994 34.425 46.5994 34.4312C46.5994 34.4374 46.5994 34.4436 46.5994 34.4498C46.5994 34.456 46.5994 34.4621 46.5994 34.4683C46.5994 34.4745 46.5994 34.4807 46.5994 34.4869C46.5994 34.493 46.5994 34.4992 46.5994 34.5054C46.5994 34.5115 46.5994 34.5177 46.5994 34.5239C46.5994 34.5301 46.5994 34.5362 46.5994 34.5424C46.5994 34.5485 46.5994 34.5547 46.5994 34.5609C46.5994 34.567 46.5994 34.5732 46.5994 34.5793C46.5994 34.5855 46.5994 34.5916 46.5994 34.5978C46.5994 34.6039 46.5994 34.61 46.5994 34.6162C46.5994 34.6223 46.5994 34.6285 46.5994 34.6346C46.5994 34.6407 46.5994 34.6469 46.5994 34.653C46.5994 34.6591 46.5994 34.6652 46.5994 34.6714C46.5994 34.6775 46.5994 34.6836 46.5994 34.6897C46.5994 34.6958 46.5994 34.702 46.5994 34.7081C46.5994 34.7142 46.5994 34.7203 46.5994 34.7264C46.5994 34.7325 46.5994 34.7386 46.5994 34.7447C46.5994 34.7508 46.5994 34.7569 46.5994 34.763C46.5994 34.7691 46.5994 34.7752 46.5994 34.7812C46.5994 34.7873 46.5994 34.7934 46.5994 34.7995C46.5994 34.8056 46.5994 34.8116 46.5994 34.8177C46.5994 34.8238 46.5994 34.8298 46.5994 34.8359C46.5994 34.842 46.5994 34.848 46.5994 34.8541C46.5994 34.8601 46.5994 34.8662 46.5994 34.8722C46.5994 34.8783 46.5994 34.8843 46.5994 34.8904C46.5994 34.8964 46.5994 34.9025 46.5994 34.9085C46.5994 34.9145 46.5994 34.9206 46.5994 34.9266C46.5994 34.9326 46.5994 34.9387 46.5994 34.9447C46.5994 34.9507 46.5994 34.9567 46.5994 34.9627C46.5994 34.9687 46.5994 34.9748 46.5994 34.9808C46.5994 34.9868 46.5994 34.9928 46.5994 34.9988C46.5994 35.0048 46.5994 35.0108 46.5994 35.0167C46.5994 35.0227 46.5994 35.0287 46.5994 35.0347C46.5994 35.0407 46.5994 35.0467 46.5994 35.0526C46.5994 35.0586 46.5994 35.0646 46.5994 35.0706C46.5994 35.0765 46.5994 35.0825 46.5994 35.0884C46.5994 35.0944 46.5994 35.1003 46.5994 35.1063C46.5994 35.1122 46.5994 35.1182 46.5994 35.1241C46.5994 35.1301 46.5994 35.136 46.5994 35.1419C46.5994 35.1479 46.5994 35.1538 46.5994 35.1597C46.5994 35.1656 46.5994 35.1716 46.5994 35.1775C46.5994 35.1834 46.5994 35.1893 46.5994 35.1952C46.5994 35.2011 46.5994 35.207 46.5994 35.2129C46.5994 35.2188 46.5994 35.2247 46.5994 35.2306C46.5994 35.2365 46.5994 35.2424 46.5994 35.2482C46.5994 35.2541 46.5994 35.26 46.5994 35.2659C46.5994 35.2717 46.5994 35.2776 46.5994 35.2834C46.5994 35.2893 46.5994 35.2952 46.5994 35.301C46.5994 35.3069 46.5994 35.3127 46.5994 35.3185C46.5994 35.3244 46.5994 35.3302 46.5994 35.3361C46.5994 35.3419 46.5994 35.3477 46.5994 35.3535C46.5994 35.3593 46.5994 35.3652 46.5994 35.371C46.5994 35.3768 46.5994 35.3826 46.5994 35.3884C46.5994 35.3942 46.5994 35.4 46.5994 35.4058C46.5994 35.4116 46.5994 35.4173 46.5994 35.4231C46.5994 35.4289 46.5994 35.4347 46.5994 35.4405C46.5994 35.4462 46.5994 35.452 46.5994 35.4577C46.5994 35.4635 46.5994 35.4693 46.5994 35.475C46.5994 35.4808 46.5994 35.4865 46.5994 35.4922C46.5994 35.498 46.5994 35.5037 46.5994 35.5094C46.5994 35.5152 46.5994 35.5209 46.5994 35.5266C46.5994 35.5323 46.5994 35.538 46.5994 35.5437C46.5994 35.5494 46.5994 35.5551 46.5994 35.5608C46.5994 35.5665 46.5994 35.5722 46.5994 35.5779C46.5994 35.5836 46.5994 35.5892 46.5994 35.5949C46.5994 35.6006 46.5994 35.6063 46.5994 35.6119C46.5994 35.6176 46.5994 35.6232 46.5994 35.6289C46.5994 35.6345 46.5994 35.6402 46.5994 35.6458C46.5994 35.6514 46.5994 35.6571 46.5994 35.6627C46.5994 35.6683 46.5994 35.6739 46.5994 35.6796C46.5994 35.6852 46.5994 35.6908 46.5994 35.6964C46.5994 35.702 46.5994 35.7076 46.5994 35.7132C46.5994 35.7188 46.5994 35.7243 46.5994 35.7299C46.5994 35.7355 46.5994 35.7411 46.5994 35.7466C46.5994 35.7522 46.5994 35.7577 46.5994 35.7633C46.5994 35.7688 46.5994 35.7744 46.5994 35.7799C46.5994 35.7855 46.5994 35.791 46.5994 35.7965C46.5994 35.8021 46.5994 35.8076 46.5994 35.8131C46.5994 35.8186 46.5994 35.8241 46.5994 35.8296C46.5994 35.8351 46.5994 35.8406 46.5994 35.8461C46.5994 35.8516 46.5994 35.8571 46.5994 35.8626C46.5994 35.868 46.5994 35.8735 46.5994 35.879C46.5994 35.8844 46.5994 35.8899 46.5994 35.8953C46.5994 35.9008 46.5994 35.9062 46.5994 35.9117C46.5994 35.9171 46.5994 35.9225 46.5994 35.9279C46.5994 35.9334 46.5994 35.9388 46.5994 35.9442C46.5994 35.9496 46.5994 35.955 46.5994 35.9604C46.5994 35.9658 46.5994 35.9712 46.5994 35.9766C46.5994 35.9819 46.5994 35.9873 46.5994 35.9927C46.5994 35.9981 46.5994 36.0034 46.5994 36.0088C46.5994 36.0141 46.5994 36.0195 46.5994 36.0248C46.5994 36.0302 46.5994 36.0355 46.5994 36.0408C46.5994 36.0461 46.5994 36.0515 46.5994 36.0568C46.5994 36.0621 46.5994 36.0674 46.5994 36.0727C46.5994 36.078 46.5994 36.0833 46.5994 36.0886C46.5994 36.0938 46.5994 36.0991 46.5994 36.1044C46.5994 36.1097 46.5994 36.1149 46.5994 36.1202C46.5994 36.1254 46.5994 36.1307 46.5994 36.1359C46.5994 36.1411 46.5994 36.1464 46.5994 36.1516C46.5994 36.1568 46.5994 36.162 46.5994 36.1672C46.5994 36.1725 46.5994 36.1777 46.5994 36.1829C46.5994 36.188 46.5994 36.1932 46.5994 36.1984C46.5994 36.2036 46.5994 36.2088 46.5994 36.2139C46.5994 36.2191 46.5994 36.2242 46.5994 36.2294C46.5994 36.2345 46.5994 36.2397 46.5994 36.2448C46.5994 36.2499 46.5994 36.2551 46.5994 36.2602C46.5994 36.2653 46.5994 36.2704 46.5994 36.2755C46.5994 36.2806 46.5994 36.2857 46.5994 36.2908C46.5994 36.2959 46.5994 36.301 46.5994 36.306C46.5994 36.3111 46.5994 36.3162 46.5994 36.3212C46.5994 36.3263 46.5994 36.3313 46.5994 36.3364C46.5994 36.3414 46.5994 36.3464 46.5994 36.3514C46.5994 36.3565 46.5994 36.3615 46.5994 36.3665C46.5994 36.3715 46.5994 36.3765 46.5994 36.3815C46.5994 36.3865 46.5994 36.3914 46.5994 36.3964C46.5994 36.4014 46.5994 36.4063 46.5994 36.4113C46.5994 36.4163 46.5994 36.4212 46.5994 36.4261C46.5994 36.4311 46.5994 36.436 46.5994 36.4409C46.5994 36.4459 46.5994 36.4508 46.5994 36.4557C46.5994 36.4606 46.5994 36.4655 46.5994 36.4704H48.0994ZM48.0994 29.2229L48.7702 27.8812L45.7585 26.3754L45.0877 27.717L44.4168 29.0586L47.4286 30.5645L48.0994 29.2229ZM38.1111 27.717L38.7819 29.0586C40.5556 28.1718 42.6432 28.1718 44.4168 29.0586L45.0877 27.717L45.7585 26.3754C43.1403 25.0663 40.0585 25.0662 37.4403 26.3754L38.1111 27.717Z" fill="white"/>
</svg>
