<svg width="52" height="52" viewBox="0 0 52 52" fill="none" xmlns="http://www.w3.org/2000/svg">
<rect width="52" height="52" rx="26" fill="#121212"/>
<path d="M20.209 36.4V15.6H30.1363C31.4527 15.6 32.7153 16.0695 33.6461 16.9054C34.577 17.7413 35.0999 18.875 35.0999 20.0571C35.0999 21.2392 34.577 22.3729 33.6461 23.2088C32.7153 24.0447 31.4527 24.5142 30.1363 24.5142H16.8999M30.1363 30.4571H16.8999M46.7999 25.9999C46.7999 37.4875 37.4875 46.7999 25.9999 46.7999C14.5124 46.7999 5.19995 37.4875 5.19995 25.9999C5.19995 14.5124 14.5124 5.19995 25.9999 5.19995C37.4875 5.19995 46.7999 14.5124 46.7999 25.9999Z" stroke="white" stroke-width="3" stroke-linecap="round" stroke-linejoin="round"/>
</svg>
