<svg width="52" height="52" viewBox="0 0 52 52" fill="none" xmlns="http://www.w3.org/2000/svg">
<rect width="52" height="52" rx="26" fill="#121212"/>
<path d="M18.2009 33.8002L33.8009 18.2002M19.401 19.3905L19.3703 19.3595M32.6404 32.7661L32.6098 32.7351M24.9151 7.88261L20.7456 5.57482C19.8297 5.06788 18.6935 5.46953 18.262 6.45279L16.2975 10.929C16.0419 11.5116 15.5193 11.9182 14.911 12.0078L10.237 12.6967C9.21033 12.848 8.51753 13.8694 8.72262 14.9294L9.65628 19.7549C9.77778 20.3829 9.58417 21.0322 9.14258 21.4776L5.74949 24.8999C5.00416 25.6517 5.01935 26.9027 5.78271 27.6345L9.25782 30.9661C9.71008 31.3997 9.91941 32.0437 9.81319 32.6747L8.99703 37.5233C8.81775 38.5884 9.53514 39.5912 10.5652 39.7153L15.2544 40.2805C15.8647 40.354 16.397 40.7467 16.6667 41.3223L18.7392 45.7452C19.1945 46.7168 20.34 47.0883 21.2433 46.5573L25.3555 44.1401C25.8907 43.8255 26.5426 43.8169 27.0853 44.1173L31.2548 46.4251C32.1707 46.932 33.3069 46.5304 33.7384 45.5471L35.7028 41.0709C35.9585 40.4883 36.4811 40.0817 37.0894 39.9921L41.7634 39.3032C42.7901 39.1519 43.4829 38.1305 43.2778 37.0705L42.3441 32.245C42.2226 31.617 42.4162 30.9677 42.8578 30.5223L46.2509 27.1C46.9962 26.3482 46.981 25.0972 46.2177 24.3654L42.7426 21.0338C42.2903 20.6002 42.081 19.9562 42.1872 19.3252L43.0034 14.4765C43.1826 13.4115 42.4653 12.4087 41.4352 12.2846L36.746 11.7194C36.1357 11.6459 35.6034 11.2532 35.3337 10.6776L33.2612 6.25467C32.8059 5.28312 31.6604 4.91161 30.7571 5.44258L26.6449 7.85977C26.1097 8.17435 25.4578 8.18296 24.9151 7.88261Z" stroke="white" stroke-width="2" stroke-linecap="round"/>
</svg>
