<svg width="137" height="24" viewBox="0 0 137 24" fill="none" xmlns="http://www.w3.org/2000/svg">
<path d="M13.472 23.04V12.608L14.096 13.616C13.4453 14.1387 12.5813 14.5547 11.504 14.864C10.4267 15.1627 9.25866 15.312 8 15.312C6.03733 15.312 4.46933 14.9387 3.29599 14.192C2.13333 13.4347 1.29066 12.3947 0.767995 11.072C0.255995 9.74933 -5.48363e-06 8.22933 -5.48363e-06 6.512V0H3.39199V5.44C3.39199 6.32533 3.45599 7.168 3.58399 7.968C3.71199 8.768 3.95733 9.48267 4.31999 10.112C4.68266 10.7307 5.21066 11.2213 5.90399 11.584C6.59733 11.936 7.50399 12.112 8.62399 12.112C9.92533 12.112 11.04 11.904 11.968 11.488C12.896 11.0613 13.5627 10.608 13.968 10.128L13.472 12.048V0H16.848V23.04H13.472ZM21.3125 23.04V0H36.3365V3.152H24.6565V8.704H30.6245C30.8378 8.704 31.1098 8.71467 31.4405 8.736C31.7818 8.74667 32.1018 8.77333 32.4005 8.816C33.6485 8.96533 34.6992 9.37067 35.5525 10.032C36.4165 10.6933 37.0672 11.5307 37.5045 12.544C37.9525 13.5573 38.1765 14.6667 38.1765 15.872C38.1765 17.0773 37.9578 18.1867 37.5205 19.2C37.0832 20.2133 36.4325 21.0507 35.5685 21.712C34.7152 22.3733 33.6592 22.7787 32.4005 22.928C32.1018 22.9707 31.7872 23.0027 31.4565 23.024C31.1258 23.0347 30.8485 23.04 30.6245 23.04H21.3125ZM24.6565 19.888H30.4965C30.7098 19.888 30.9445 19.8773 31.2005 19.856C31.4672 19.8347 31.7178 19.8027 31.9525 19.76C32.9872 19.5467 33.7125 19.056 34.1285 18.288C34.5552 17.52 34.7685 16.7147 34.7685 15.872C34.7685 15.0187 34.5552 14.2133 34.1285 13.456C33.7125 12.688 32.9872 12.1973 31.9525 11.984C31.7178 11.9307 31.4672 11.8987 31.2005 11.888C30.9445 11.8667 30.7098 11.856 30.4965 11.856H24.6565V19.888ZM48.4212 23.04V0H51.7652V23.04H48.4212ZM63.2812 23.04V0H78.3052V3.152H66.6252V8.704H72.5932C72.8066 8.704 73.0786 8.71467 73.4092 8.736C73.7506 8.74667 74.0706 8.77333 74.3692 8.816C75.6172 8.96533 76.6679 9.37067 77.5212 10.032C78.3852 10.6933 79.0359 11.5307 79.4732 12.544C79.9212 13.5573 80.1452 14.6667 80.1452 15.872C80.1452 17.0773 79.9266 18.1867 79.4892 19.2C79.0519 20.2133 78.4012 21.0507 77.5372 21.712C76.6839 22.3733 75.6279 22.7787 74.3692 22.928C74.0706 22.9707 73.7559 23.0027 73.4252 23.024C73.0946 23.0347 72.8172 23.04 72.5932 23.04H63.2812ZM66.6252 19.888H72.4652C72.6786 19.888 72.9132 19.8773 73.1692 19.856C73.4359 19.8347 73.6866 19.8027 73.9212 19.76C74.9559 19.5467 75.6812 19.056 76.0972 18.288C76.5239 17.52 76.7372 16.7147 76.7372 15.872C76.7372 15.0187 76.5239 14.2133 76.0972 13.456C75.6812 12.688 74.9559 12.1973 73.9212 11.984C73.6866 11.9307 73.4359 11.8987 73.1692 11.888C72.9132 11.8667 72.6786 11.856 72.4652 11.856H66.6252V19.888ZM88.2237 23.52C86.9437 23.52 85.8717 23.2853 85.0077 22.816C84.1437 22.336 83.4877 21.7067 83.0397 20.928C82.6024 20.1387 82.3837 19.2747 82.3837 18.336C82.3837 17.4613 82.5384 16.6933 82.8477 16.032C83.1571 15.3707 83.6157 14.8107 84.2237 14.352C84.8317 13.8827 85.5784 13.504 86.4637 13.216C87.2317 12.992 88.1011 12.7947 89.0717 12.624C90.0424 12.4533 91.0611 12.2933 92.1277 12.144C93.2051 11.9947 94.2717 11.8453 95.3277 11.696L94.1117 12.368C94.1331 11.0133 93.8451 10.0107 93.2477 9.36C92.6611 8.69867 91.6477 8.368 90.2077 8.368C89.3011 8.368 88.4691 8.58133 87.7117 9.008C86.9544 9.424 86.4264 10.1173 86.1277 11.088L83.0077 10.128C83.4344 8.64533 84.2451 7.46667 85.4397 6.592C86.6451 5.71733 88.2451 5.28 90.2397 5.28C91.7864 5.28 93.1304 5.54667 94.2717 6.08C95.4237 6.60267 96.2664 7.43467 96.7997 8.576C97.0771 9.14133 97.2477 9.73867 97.3117 10.368C97.3757 10.9973 97.4077 11.6747 97.4077 12.4V23.04H94.4477V19.088L95.0237 19.6C94.3091 20.9227 93.3971 21.9093 92.2877 22.56C91.1891 23.2 89.8344 23.52 88.2237 23.52ZM88.8157 20.784C89.7651 20.784 90.5811 20.6187 91.2637 20.288C91.9464 19.9467 92.4957 19.5147 92.9117 18.992C93.3277 18.4693 93.5997 17.9253 93.7277 17.36C93.9091 16.848 94.0104 16.272 94.0317 15.632C94.0637 14.992 94.0797 14.48 94.0797 14.096L95.1677 14.496C94.1117 14.656 93.1517 14.8 92.2877 14.928C91.4237 15.056 90.6397 15.184 89.9357 15.312C89.2424 15.4293 88.6237 15.5733 88.0797 15.744C87.6211 15.904 87.2104 16.096 86.8477 16.32C86.4957 16.544 86.2131 16.816 85.9997 17.136C85.7971 17.456 85.6957 17.8453 85.6957 18.304C85.6957 18.752 85.8077 19.168 86.0317 19.552C86.2557 19.9253 86.5971 20.224 87.0557 20.448C87.5144 20.672 88.1011 20.784 88.8157 20.784ZM101.546 23.04V5.76H104.89V12.816H113.322V5.76H116.666V23.04H113.322V15.968H104.89V23.04H101.546ZM121.14 23.04L121.156 5.76H124.548V14.08L131.332 5.76H135.588L128.42 14.4L136.324 23.04H131.78L124.548 14.72V23.04H121.14Z" fill="#121212"/>
</svg>
