<svg width="52" height="52" viewBox="0 0 52 52" fill="none" xmlns="http://www.w3.org/2000/svg">
<rect width="52" height="52" rx="26" fill="#121212"/>
<path d="M46.7999 35.88V37.38C47.6284 37.38 48.2999 36.7084 48.2999 35.88H46.7999ZM46.7999 24.44H48.2999C48.2999 23.6115 47.6284 22.94 46.7999 22.94V24.44ZM15.8288 13.8182C15.132 14.2662 14.9302 15.1943 15.3782 15.8911C15.8262 16.588 16.7542 16.7897 17.4511 16.3417L16.6399 15.08L15.8288 13.8182ZM31.1999 5.71997L32.384 4.79906C31.9073 4.18624 31.0419 4.03838 30.3888 4.4582L31.1999 5.71997ZM37.2959 16.0009C37.8045 16.6548 38.7469 16.7726 39.4009 16.264C40.0548 15.7554 40.1726 14.813 39.664 14.1591L38.4799 15.08L37.2959 16.0009ZM46.7999 35.88V34.38H40.0399V35.88V37.38H46.7999V35.88ZM40.0399 24.44V25.94H46.7999V24.44V22.94H40.0399V24.44ZM46.7999 24.44H45.2999V35.88H46.7999H48.2999V24.44H46.7999ZM34.3199 30.16H35.8199C35.8199 27.8293 37.7093 25.94 40.0399 25.94V24.44V22.94C36.0525 22.94 32.8199 26.1725 32.8199 30.16H34.3199ZM40.0399 35.88V34.38C37.7093 34.38 35.8199 32.4906 35.8199 30.16H34.3199H32.8199C32.8199 34.1475 36.0525 37.38 40.0399 37.38V35.88ZM16.6399 15.08L17.4511 16.3417L32.0111 6.98174L31.1999 5.71997L30.3888 4.4582L15.8288 13.8182L16.6399 15.08ZM31.1999 5.71997L30.0159 6.64088L37.2959 16.0009L38.4799 15.08L39.664 14.1591L32.384 4.79906L31.1999 5.71997ZM7.27995 15.08V16.58H42.6399V15.08V13.58H7.27995V15.08ZM42.6399 46.28V44.78H7.27995V46.28V47.78H42.6399V46.28ZM5.19995 44.2H6.69995V17.16H5.19995H3.69995V44.2H5.19995ZM7.27995 46.28V44.78C6.95963 44.78 6.69995 44.5203 6.69995 44.2H5.19995H3.69995C3.69995 46.1772 5.30277 47.78 7.27995 47.78V46.28ZM44.7199 44.2H43.2199C43.2199 44.5203 42.9603 44.78 42.6399 44.78V46.28V47.78C44.6171 47.78 46.2199 46.1772 46.2199 44.2H44.7199ZM42.6399 15.08V16.58C42.9603 16.58 43.2199 16.8396 43.2199 17.16H44.7199H46.2199C46.2199 15.1828 44.6171 13.58 42.6399 13.58V15.08ZM7.27995 15.08V13.58C5.30277 13.58 3.69995 15.1828 3.69995 17.16H5.19995H6.69995C6.69995 16.8396 6.95963 16.58 7.27995 16.58V15.08ZM44.7199 37.44H43.2199V44.2H44.7199H46.2199V37.44H44.7199ZM44.7199 17.16H43.2199V22.62H44.7199H46.2199V17.16H44.7199Z" fill="white"/>
</svg>
