<svg width="50" height="50" viewBox="0 0 50 50" fill="none" xmlns="http://www.w3.org/2000/svg">
<rect width="50" height="50" rx="10" fill="#121212"/>
<path d="M12.5 20V28.75M37.5 20V28.75M8.75 37.5H41.25C43.3211 37.5 45 35.8211 45 33.75V16.25C45 14.1789 43.3211 12.5 41.25 12.5H8.75C6.67893 12.5 5 14.1789 5 16.25V33.75C5 35.8211 6.67893 37.5 8.75 37.5ZM30 25C30 27.7614 27.7614 30 25 30C22.2386 30 20 27.7614 20 25C20 22.2386 22.2386 20 25 20C27.7614 20 30 22.2386 30 25Z" stroke="white" stroke-width="2" stroke-linecap="round" stroke-linejoin="round"/>
</svg>
